<svg xmlns="http://www.w3.org/2000/svg" width="20" height="21" viewBox="0 0 20 21">
    <g fill="none" fill-rule="evenodd">
        <g fill="#D81E05" fill-rule="nonzero">
            <g>
                <g>
                    <path d="M.625 20.313c-.344 0-.625-.42-.625-.938 0-.517.281-.938.625-.938h18.75c.344 0 .625.42.625.938 0 .517-.281.938-.625.938H.625zM9.158 15.9l-.018-.007c-.077-.03-.148-.074-.208-.132l-3.125-3.005c-.116-.11-.182-.264-.182-.425 0-.16.066-.314.183-.425.247-.235.635-.235.883 0l2.059 1.98V.912c0-.345.28-.625.625-.625s.625.28.625.625v12.972l2.059-1.979c.247-.235.636-.235.884 0 .116.111.182.265.182.425 0 .161-.066.315-.182.426l-3.125 3.005c-.06.056-.13.1-.205.13l-.022.009c-.07.024-.142.037-.216.037-.074 0-.147-.013-.217-.038z" transform="translate(-730 -129) translate(130 119) translate(600 10)"/>
                </g>
            </g>
        </g>
    </g>
</svg>
