<svg xmlns="http://www.w3.org/2000/svg" width="64" height="64" viewBox="0 0 64 64">
    <g fill="none" fill-rule="evenodd">
        <g fill="#008C47" fill-rule="nonzero">
            <g>
                <path d="M46.848 21.376c-.278-.256-.646-.394-1.024-.384-.38-.048-.745.16-.896.512L28.672 39.68l-9.6-7.68c-.264-.274-.662-.374-1.024-.256-.548.07-.998.467-1.138 1-.14.535.056 1.1.498 1.432l10.624 8.576c.245.216.574.31.896.256.407.02.796-.174 1.024-.512l17.024-19.2c.256-.278.394-.646.384-1.024-.092-.337-.268-.645-.512-.896zM32 2.56c16.26 0 29.44 13.18 29.44 29.44S48.26 61.44 32 61.44 2.56 48.26 2.56 32C2.562 15.742 15.742 2.562 32 2.56zM32 0C14.327 0 0 14.327 0 32c0 17.673 14.327 32 32 32 17.673 0 32-14.327 32-32C63.993 14.33 49.67.007 32 0z" transform="translate(-688 -321) translate(688 321)"/>
            </g>
        </g>
    </g>
</svg>
