<svg xmlns="http://www.w3.org/2000/svg" width="64" height="64" viewBox="0 0 64 64">
    <g fill="none" fill-rule="evenodd">
        <g fill="#D81E05" fill-rule="nonzero">
            <g>
                <path d="M47.472 19.755l-3.088-3.088L32.139 28.91 19.894 16.667l-3.088 3.088L29.05 32 16.806 44.245l3.088 3.088L32.14 35.09l12.245 12.244 3.088-3.088L35.227 32l12.245-12.245zM32 2.56c16.26 0 29.44 13.18 29.44 29.44S48.26 61.44 32 61.44 2.56 48.26 2.56 32C2.562 15.742 15.742 2.562 32 2.56zM32 0C14.327 0 0 14.327 0 32c0 17.673 14.327 32 32 32 17.673 0 32-14.327 32-32C63.993 14.33 49.67.007 32 0z" transform="translate(-688 -305) translate(688 305)"/>
            </g>
        </g>
    </g>
</svg>
