<svg xmlns="http://www.w3.org/2000/svg" xmlns:xlink="http://www.w3.org/1999/xlink" width="24" height="24" viewBox="0 0 24 24">
    <defs>
        <path id="bp544esxza" d="M0 0H24V24H0z"/>
    </defs>
    <g fill="none" fill-rule="evenodd">
        <g>
            <g>
                <g>
                    <g transform="translate(-678 -681) translate(327 629) translate(0 40) translate(351 12)">
                        <mask id="gc49anc85b" fill="#fff">
                            <use xlink:href="#bp544esxza"/>
                        </mask>
                        <g fill-rule="nonzero" mask="url(#gc49anc85b)">
                            <path fill="transparent" d="M0 0H24V24H0z"/>
                            <g fill="#52656F">
                                <path d="M2.25 24C1.008 23.998.002 22.992 0 21.75V5.25C.002 4.008 1.008 3.002 2.25 3H6V.75c0-.414.336-.75.75-.75s.75.336.75.75V3h9V.75c0-.414.336-.75.75-.75s.75.336.75.75V3h3.75c1.242.002 2.248 1.008 2.25 2.25v16.5c-.001 1.242-1.008 2.249-2.25 2.25H2.25zm-.75-2.25c0 .414.336.75.75.75h19.5c.414 0 .75-.336.75-.75V10.5h-21v11.25zm0-16.5V9h21V5.25c0-.414-.336-.75-.75-.75H18V6c0 .414-.336.75-.75.75s-.75-.336-.75-.75V4.5h-9V6c0 .414-.336.75-.75.75S6 6.414 6 6V4.5H2.25c-.414 0-.75.336-.75.75zm15.75 13.875c.001-.62.504-1.124 1.125-1.125h.073c.609.042 1.073.562 1.045 1.172-.028.61-.538 1.085-1.149 1.071-.61-.014-1.097-.514-1.096-1.124l.002.006zm-6.376 0c0-.621.503-1.125 1.125-1.125.62 0 1.125.503 1.125 1.124 0 .622-.503 1.125-1.124 1.126-.621 0-1.125-.504-1.125-1.125h-.001zm-6.375 0c0-.621.503-1.125 1.125-1.125.62 0 1.125.503 1.125 1.124 0 .622-.503 1.125-1.124 1.126-.621 0-1.125-.504-1.125-1.125h-.001zm12.75-5.25c0-.621.503-1.125 1.125-1.125.62 0 1.125.503 1.125 1.124 0 .622-.503 1.125-1.124 1.126-.298 0-.585-.118-.796-.33-.21-.21-.33-.497-.329-.795h-.001zm-6.376 0c0-.621.503-1.125 1.124-1.125.621 0 1.125.503 1.126 1.124 0 .62-.502 1.125-1.123 1.126-.621 0-1.125-.504-1.125-1.125h-.002zm-6.375 0c0-.621.503-1.125 1.124-1.125.621 0 1.125.503 1.126 1.124 0 .62-.502 1.125-1.123 1.126-.621 0-1.125-.504-1.125-1.125h-.002z"/>
                            </g>
                        </g>
                    </g>
                </g>
            </g>
        </g>
    </g>
</svg>
