<svg xmlns="http://www.w3.org/2000/svg" width="64" height="64" viewBox="0 0 64 64">
    <g fill="none" fill-rule="evenodd">
        <g fill="#D81E05" fill-rule="nonzero">
            <g>
                <g>
                    <g>
                        <path d="M6.062 64c-.927-.002-1.842-.214-2.675-.621-2.996-1.477-4.232-5.1-2.763-8.1L25.881 3.811c.668-1.35 1.761-2.444 3.112-3.111 3.38-1.66 7.464-.267 9.125 3.112l25.26 51.461c.407.833.62 1.747.622 2.674-.003 3.343-2.712 6.051-6.055 6.053H6.062zm24.7-59.712c-.558.276-1.01.728-1.285 1.286L4.213 57.038c-.313.637-.275 1.39.1 1.992.375.603 1.034.97 1.743.97h51.886c.71.002 1.372-.363 1.748-.965.377-.603.415-1.357.102-1.995L34.527 5.574c-.48-.961-1.46-1.57-2.534-1.574-.428-.001-.851.098-1.235.288h.004zM29 51c0-1.657 1.343-3 3-3s3 1.343 3 3-1.343 3-3 3c-1.655-.003-2.997-1.345-3-3zm1-11V20c0-1.105.895-2 2-2s2 .895 2 2v20c0 1.105-.895 2-2 2s-2-.895-2-2z" transform="translate(-688 -336) translate(330 256) translate(54 80) translate(304)"/>
                    </g>
                </g>
            </g>
        </g>
    </g>
</svg>
