<svg xmlns="http://www.w3.org/2000/svg" width="64" height="64" viewBox="0 0 64 64">
    <g fill="none" fill-rule="evenodd">
        <g fill="#D81E05" fill-rule="nonzero">
            <g>
                <path d="M0 32C0 14.327 14.327 0 32 0c17.673 0 32 14.327 32 32 0 17.673-14.327 32-32 32C14.335 63.98.02 49.665 0 32zm4 0c0 15.464 12.536 28 28 28s28-12.536 28-28S47.464 4 32 4C16.543 4.018 4.018 16.543 4 32zm32 14c-3.312-.003-5.997-2.688-6-6V30h-2c-1.105 0-2-.895-2-2s.895-2 2-2h2c2.21 0 4 1.79 4 4v10c0 1.105.895 2 2 2h2c1.105 0 2 .895 2 2s-.895 2-2 2h-2zm-5-30c1.657 0 3 1.343 3 3s-1.343 3-3 3-3-1.343-3-3 1.343-3 3-3z" transform="translate(-688 -305) translate(688 305)"/>
            </g>
        </g>
    </g>
</svg>
