<svg xmlns="http://www.w3.org/2000/svg" xmlns:xlink="http://www.w3.org/1999/xlink" width="24" height="24" viewBox="0 0 24 24">
    <defs>
        <path id="ymul3eznoa" d="M0 0H24V24H0z"/>
    </defs>
    <g fill="none" fill-rule="evenodd">
        <g>
            <g>
                <g transform="translate(-1132 -380) translate(430 283) translate(702 97)">
                    <mask id="5t9m0iv37b" fill="#fff">
                        <use xlink:href="#ymul3eznoa"/>
                    </mask>
                    <g fill-rule="nonzero" mask="url(#5t9m0iv37b)">
                        <path d="M0 0H24V24H0z"/>
                        <g fill="#D81E05">
                            <path d="M2.423 22C1.085 21.999.001 20.915 0 19.577V3.423C.001 2.085 1.085 1.001 2.423 1H10.5c.446 0 .808.362.808.808 0 .446-.362.808-.808.808H2.423c-.445 0-.806.362-.807.807v16.154c0 .446.361.807.807.808h16.154c.446 0 .807-.362.807-.808V11.5c0-.446.362-.808.808-.808.446 0 .808.362.808.808v8.077c-.001 1.338-1.085 2.422-2.423 2.423H2.423zm5.805-5.243c-.174-.189-.255-.446-.22-.7l.55-4.094c.023-.175.1-.339.22-.468L18.687.968c.566-.616 1.364-.967 2.2-.967.836 0 1.634.35 2.2.967 1.214 1.323 1.214 3.355 0 4.678l-9.906 10.527c-.116.125-.27.207-.438.234l-3.855.585c-.036.005-.073.008-.11.008-.21 0-.409-.089-.55-.243zM19.787 2.139L10.062 12.47 9.7 15.2l2.569-.391 9.72-10.332c.607-.661.607-1.677 0-2.338-.284-.306-.682-.48-1.1-.48-.418 0-.816.174-1.1.48h-.002z" transform="translate(0 1)"/>
                        </g>
                    </g>
                </g>
            </g>
        </g>
    </g>
</svg>
