<svg xmlns="http://www.w3.org/2000/svg" xmlns:xlink="http://www.w3.org/1999/xlink" width="24" height="24" viewBox="0 0 24 24">
    <defs>
        <path id="cjmfpg2mia" d="M0 0H24V24H0z"/>
    </defs>
    <g fill="none" fill-rule="evenodd">
        <g>
            <g>
                <g transform="translate(-1130 -419) translate(430 283) translate(700 136)">
                    <mask id="pgytzb8w0b" fill="#fff">
                        <use xlink:href="#cjmfpg2mia"/>
                    </mask>
                    <g fill-rule="nonzero" mask="url(#pgytzb8w0b)">
                        <path d="M0 0H24V24H0z"/>
                        <g fill="#D81E05">
                            <path d="M6 22c-1.41.007-2.56-1.128-2.571-2.538V5.077H.857c-.467 0-.846-.379-.846-.846 0-.467.379-.846.846-.846h6v-.846C6.868 1.129 8.017-.007 9.428 0h5.143c1.41-.007 2.561 1.128 2.572 2.539v.846h6c.467 0 .846.379.846.846 0 .467-.379.846-.846.846h-2.572v14.385C20.56 20.872 19.41 22.007 18 22H6zm-.858-2.538c.004.47.388.849.858.846h12c.47.002.853-.376.857-.846V5.077H5.143l-.001 14.385zm3.43-16.923v.846h6.857v-.846c-.004-.47-.388-.85-.858-.847H9.428c-.47-.002-.853.377-.856.847zM14 16.2V9.8c.061-.494.505-.849 1-.8.495-.049.939.306 1 .8v6.4c-.061.494-.505.849-1 .8-.495.049-.939-.306-1-.8zm-5 0V9.8c.061-.494.505-.849 1-.8.495-.049.939.306 1 .8v6.4c-.061.494-.505.849-1 .8-.495.049-.939-.306-1-.8z" transform="translate(0 1)"/>
                        </g>
                    </g>
                </g>
            </g>
        </g>
    </g>
</svg>
