<svg xmlns="http://www.w3.org/2000/svg" width="206" height="24" viewBox="0 0 206 24">
    <g fill="none" fill-rule="evenodd">
        <g fill="#D81E05">
            <g>
                <g>
                    <path d="M11.963 0c6.606 0 11.962 5.373 11.962 12s-5.356 12-11.962 12C5.356 24 0 18.627 0 12S5.356 0 11.963 0zM206 0v3.939h-14.654v6.103H206v3.938h-14.654v6.08H206V24h-23.488V0H206zm-32.784.008c3.302 0 5.979 2.685 5.979 5.998 0 3.312-2.677 5.998-5.979 5.998 3.236 0 5.875 2.579 5.979 5.8V24h-8.687v-5.806c.003-.064.005-.128.005-.193 0-2.106-1.652-3.826-3.724-3.932l-.202-.005h-1.915V24h-8.981V.008h17.525zM92.856.001L99.728 24h-8.834l-1.127-3.94h-9.43L79.21 24h-8.834l6.871-24h15.61zM47.023 0L52.864 12l5.842-12 8.834.002V24h-8.834V12l-5.843 11.998L47.022 12v11.999h-8.834V0h8.834zm72.055.011c3.852 0 6.974 3.132 6.974 6.995 0 3.784-2.994 6.866-6.734 6.993l-.24.004h-7.7V24h-8.833V.012h16.533zM152.6.001v3.938h-14.653v6.103H152.6v3.938h-14.653V24h-8.833V0H152.6zM11.963 1.143C5.985 1.143 1.139 6.003 1.139 12c0 5.996 4.846 10.857 10.824 10.857 5.977 0 10.822-4.86 10.822-10.857 0-5.996-4.845-10.857-10.822-10.857zm0 4.853c.993 0 1.948.176 2.835.5.51.221.964.687 1.155 1.241.5-.115 1.018-.003 1.426.308.606.51 1.222 1.201 1.64 1.925.414.721.687 1.488.826 2.266.008.049.016.107.02.173l.002.068c.026.637-.292 1.268-.884 1.611-.27.157-.569.234-.863.238l-.11-.003-3.892-.01-.369.008-1.2.006v3.677h-1.173v-3.677l-1.508-.011-.061-.002-3.892.01c-.33.017-.668-.06-.974-.236-.591-.343-.909-.974-.883-1.61 0-.095.01-.177.022-.242.139-.778.412-1.545.827-2.266.416-.724.945-1.347 1.552-1.858.407-.301.976-.453 1.5-.36.149-.502.497-.917.95-1.154.085-.05.166-.084.232-.108.882-.32 1.833-.494 2.822-.494zM85.05 3.594l-3.586 12.529h7.173L85.051 3.594zm-73.088 3.58c-.85 0-1.666.149-2.423.424l-.036.015-.028.016c-.248.118-.42.372-.42.666 0 .13.033.252.092.358l.039.062 2.445 4.223c.058.125.184.211.33.211.126 0 .236-.063.302-.16l2.471-4.268c.087-.12.138-.27.138-.43 0-.281-.158-.526-.39-.65l-.086-.04c-.76-.277-1.58-.428-2.434-.428zm-4.678 1.79l-.072.05c-.503.424-.943.941-1.29 1.545-.346.6-.572 1.238-.687 1.884l-.004.031v.026c-.018.224.09.449.296.569.088.05.183.076.278.08l.07-.002 3.96-.011c.11.01.222-.044.282-.147.05-.087.052-.188.013-.273L8.137 9.23c-.05-.111-.133-.208-.246-.272-.194-.113-.426-.103-.606.005zm8.749-.006c-.094.054-.168.13-.218.217l-.028.055-1.972 3.445c-.06.092-.067.213-.01.314.052.088.141.14.236.147l4.006.01c.118.01.24-.014.349-.077.177-.103.281-.283.296-.473V12.5c.001-.015 0-.034-.004-.057-.115-.646-.341-1.283-.687-1.884-.313-.543-.7-1.017-1.141-1.415l-.169-.145c-.184-.141-.444-.165-.658-.041zm150.553-6.195h-1.915v7.18h1.915c2.17 0 3.926-1.762 3.926-3.937 0-2.105-1.859-3.173-3.738-3.24l-.188-.003zm-53.145-.003h-1.916v7.18h1.916c2.22 0 3.926-1.762 3.926-3.937 0-2.105-1.812-3.173-3.734-3.24l-.192-.003z" transform="translate(-121 -28) translate(121 25) translate(0 3)"/>
                </g>
            </g>
        </g>
    </g>
</svg>
